<?xml version="1.0" encoding="UTF-8" standalone="no"?>
<svg
   width="149"
   height="132"
   version="1.1"
   id="svg1"
   sodipodi:docname="placeholder.svg"
   inkscape:version="1.4 (e7c3feb100, 2024-10-09)"
   xmlns:inkscape="http://www.inkscape.org/namespaces/inkscape"
   xmlns:sodipodi="http://sodipodi.sourceforge.net/DTD/sodipodi-0.dtd"
   xmlns="http://www.w3.org/2000/svg"
   xmlns:svg="http://www.w3.org/2000/svg">
  <defs
     id="defs1" />
  <sodipodi:namedview
     id="namedview1"
     pagecolor="#ffffff"
     bordercolor="#000000"
     borderopacity="0.25"
     inkscape:showpageshadow="2"
     inkscape:pageopacity="0.0"
     inkscape:pagecheckerboard="0"
     inkscape:deskcolor="#d1d1d1"
     inkscape:zoom="6.0606061"
     inkscape:cx="74.58"
     inkscape:cy="66"
     inkscape:window-width="1920"
     inkscape:window-height="1008"
     inkscape:window-x="0"
     inkscape:window-y="0"
     inkscape:window-maximized="1"
     inkscape:current-layer="svg1" />
  <path
     d="M143.209,105.968c0,6.25-5.113,11.364-11.363,11.364H18.203c-6.25 0-11.363-5.113-11.363-11.364v-86.37c0-6.25,5.113-11.363 11.363-11.363h113.643c6.25,0,11.363,5.113,11.363,11.363V105.968z M18.203,17.326c-1.207,0-2.271,1.068-2.271,2.271v86.37c0,1.207,1.065 2.271,2.271,2.271h113.643c1.203,0,2.274-1.064 2.274-2.271v-86.37c0-1.203-1.071-2.271-2.274-2.271H18.203z M38.661,53.691c-7.529,0-13.641-6.108-13.641-13.635s6.112-13.638,13.641-13.638 c7.526,0,13.632,6.111,13.632,13.638S46.188,53.691,38.661,53.691z M125.025,99.15H25.02V85.51l22.73-22.724l11.363,11.36l36.365-36.361l29.547,29.547V99.15z"
     id="path1"
     style="fill:#777777;fill-opacity:1" />
</svg>
